<svg xmlns="http://www.w3.org/2000/svg" height="800" width="1200" viewBox="-84.92355 -31.98375 736.0041 191.9025"><path d="M411.994 126.047c-16.33-4.28-23.714-13.442-23.79-29.512-.066-14.004 5.675-22.183 18.953-27.005 3.896-1.415 8.933-1.913 22.797-2.254l17.797-.437-.297-5.55c-.43-8.045-2.87-9.642-15.434-10.103-12.247-.45-16.065.319-19.42 3.911l-2.717 2.908-9.71-2.916c-5.34-1.603-9.961-3.167-10.269-3.474-1.172-1.173 3.252-8.786 7.246-12.467 9.43-8.692 29.174-11.945 48.007-7.91 7.426 1.59 13.755 5.143 18.241 10.24 6.155 6.992 6.76 10.438 6.76 38.557 0 23.462-.098 24.711-2.304 29.5-4.194 9.101-11.049 14.073-23.427 16.992-8.714 2.054-23.605 1.834-32.433-.48zm31.298-21.323c3.926-2.03 4.365-3.223 4.365-11.842v-6.988l-15.43.32c-13.822.287-15.725.54-18.25 2.42-2.07 1.54-2.905 3.112-3.14 5.905-.62 7.394 1.045 9.722 8.32 11.63 4.966 1.301 20.637.363 24.135-1.445zm69.365 22.62c-8.491-1.42-15.609-4.788-20.524-9.714-8.466-8.485-8.476-8.56-8.476-66.804 0-44.286.17-49.642 1.582-50.184 2.949-1.132 18.964-.662 20.218.593.826.826 1.2 5.846 1.2 16.107 0 13.679.142 14.852 1.718 14.247 4.307-1.652 17.056-2.488 24.703-1.62 15.867 1.804 25.966 7.833 30.716 18.339 2.278 5.038 2.363 6.112 2.363 29.727 0 20.8-.265 25.26-1.757 29.531-3.498 10.01-11.544 16.26-24.462 18.997-6.267 1.328-21.416 1.762-27.28.781zm26.635-22.62c1.718-.889 3.403-2.344 3.744-3.234.342-.89.621-11.278.621-23.083 0-21.293-.018-21.482-2.388-23.852-3.063-3.062-7.222-3.8-18.974-3.37-7.745.285-10.016.738-12.317 2.457l-2.82 2.107-.269 23.108-.268 23.107 2.543 1.667c4.009 2.626 8.311 3.347 17.999 3.016 5.796-.198 10.118-.884 12.129-1.923zM.01 124.51c-.648-1.69 30.835-105.84 33.735-111.6C37.552 5.347 45.641.777 55.157.812c9.666.036 16.459 3.783 20.857 11.505 3.027 5.315 35.065 110.176 34.284 112.212-.464 1.207-2.653 1.505-11.074 1.505-8.994 0-10.622-.25-11.378-1.75-.485-.963-2.864-8.837-5.285-17.499l-4.404-15.748h-46l-4.403 15.748c-2.421 8.662-4.8 16.536-5.285 17.499-.756 1.5-2.384 1.75-11.378 1.75-8.481 0-10.609-.293-11.081-1.524zm65.55-77.022c-3.762-12.95-7.107-23.976-7.43-24.5-.813-1.315-5.2-1.203-6.039.153-.377.61-3.726 11.634-7.444 24.5l-6.76 23.393h34.516zm53.764 77.879c-.367-.367-.667-28.444-.667-62.393 0-55.364.164-61.789 1.582-62.333 2.949-1.132 18.964-.662 20.218.593.826.825 1.2 5.835 1.2 16.059 0 8.172.371 14.63.824 14.35 2.386-1.475 18.361-2.513 25.704-1.67 14.863 1.707 24.836 7.227 29.795 16.492 2.126 3.972 2.177 4.961 2.177 41.569v37.5h-21l-.5-34.5c-.275-18.975-.892-35.109-1.372-35.852-3.705-5.746-31.157-5.635-34.827.14-.424.667-.777 16.137-.785 34.38-.008 18.242-.289 33.88-.623 34.75-.498 1.3-2.43 1.582-10.833 1.582-5.624 0-10.526-.3-10.893-.667zm96.404-.748c-.936-1.128-1.148-9.802-.89-36.284.332-34.031.392-34.917 2.693-40.028 3.04-6.753 9.275-12.437 16.684-15.21 8.1-3.03 20.75-4.34 30.278-3.136 16.175 2.044 25.028 7.02 29.808 16.755l2.856 5.818v73h-22l-.5-34.893-.5-34.893-2.82-2.107c-2.337-1.746-4.555-2.167-12.945-2.457-10.626-.367-16.565.737-18.866 3.506-1.077 1.297-1.475 9.01-1.869 36.246l-.5 34.598-10.1.283c-7.957.223-10.36-.031-11.329-1.198zm122.93.043c-11.425-2.548-19.316-8.853-23.254-18.579-2.225-5.496-2.247-6.032-2.247-55.55v-50h21l.5 47.5c.543 51.565.557 51.686 6.145 54.576 2.06 1.065 6.996 1.428 19.556 1.44 9.24.008 17.38.383 18.088.833.943.598 1.21 3.474 1 10.734l-.289 9.918-17.5.177c-10.83.11-19.596-.29-23-1.05z" fill="#1f4787"/></svg>